<?xml version="1.0" encoding="UTF-8" standalone="no"?>
<!-- Created with Inkscape (http://www.inkscape.org/) -->

<svg
   width="297mm"
   height="210mm"
   viewBox="0 0 297 210"
   version="1.1"
   id="svg1"
   xml:space="preserve"
   inkscape:version="1.3.2 (091e20e, 2023-11-25, custom)"
   sodipodi:docname="2_transformed_indicative.svg"
   xmlns:inkscape="http://www.inkscape.org/namespaces/inkscape"
   xmlns:sodipodi="http://sodipodi.sourceforge.net/DTD/sodipodi-0.dtd"
   xmlns="http://www.w3.org/2000/svg"
   xmlns:svg="http://www.w3.org/2000/svg"><sodipodi:namedview
     id="namedview1"
     pagecolor="#ffffff"
     bordercolor="#000000"
     borderopacity="0.25"
     inkscape:showpageshadow="2"
     inkscape:pageopacity="0.0"
     inkscape:pagecheckerboard="0"
     inkscape:deskcolor="#d1d1d1"
     inkscape:document-units="mm"
     inkscape:zoom="0.7082281"
     inkscape:cx="405.23667"
     inkscape:cy="533.02036"
     inkscape:window-width="1920"
     inkscape:window-height="991"
     inkscape:window-x="-9"
     inkscape:window-y="-9"
     inkscape:window-maximized="1"
     inkscape:current-layer="layer1" /><defs
     id="defs1" /><g
     inkscape:label="Layer 1"
     inkscape:groupmode="layer"
     id="layer1"><path
       id="path26"
       style="fill:#000000;fill-opacity:1;stroke:none;stroke-width:2;stroke-linecap:round;stroke-linejoin:round;paint-order:stroke markers fill"
       d="m 195.1855,94.076428 a 12.277519,18.647263 0 0 1 -4.19044,14.023432 v 10.34149 a 18.455011,25.232605 0 0 0 11.69076,-23.450249 18.455011,25.232605 0 0 0 -0.0155,-0.914673 z"
       inkscape:export-filename="2_transformed_indicative.pdf"
       inkscape:export-xdpi="1500"
       inkscape:export-ydpi="1500" /><path
       id="rect22"
       style="fill:#000000;fill-opacity:1;stroke:none;stroke-width:2;stroke-linecap:round;stroke-linejoin:round;paint-order:stroke markers fill"
       d="m 117.68584,94.076428 -0.0934,13.073602 c 2.22955,1.6174 4.78999,2.72782 7.4998,3.25252 l 0.0934,-16.326122 z m 0,25.602772 v 11.69159 h 7.4998 v -9.47777 c -2.597,-0.36271 -5.12485,-1.10889 -7.4998,-2.21382 z"
       sodipodi:nodetypes="cccccccccc" /><path
       id="path25"
       style="fill:#000000;fill-opacity:1;stroke:none;stroke-width:2;stroke-linecap:round;stroke-linejoin:round;paint-order:stroke markers fill"
       d="m 88.709314,131.37079 a 18.238113,18.06789 0 0 0 18.238166,18.06763 18.238113,18.06789 0 0 0 18.23816,-18.06763 h -7.4998 A 10.738319,10.638095 0 0 1 106.94748,142.0089 10.738319,10.638095 0 0 1 96.209115,131.37079 Z" /><path
       id="path20"
       style="fill:#000000;fill-opacity:1;stroke:none;stroke-width:2;stroke-linecap:round;stroke-linejoin:round;paint-order:stroke markers fill"
       d="m 38.879281,144.01652 a 27.766018,27.766018 0 0 0 -0.06666,0.93224 27.766018,27.766018 0 0 0 27.766264,27.76575 27.766018,27.766018 0 0 0 1.210262,-0.0868 v -7.4228 a 21.119102,21.119106 0 0 1 -0.357601,0.01 21.119102,21.119106 0 0 1 -21.119124,-21.11913 21.119102,21.119106 0 0 1 0.0062,-0.0791 z"
       inkscape:export-filename="..\cy2001-picture-hanging-puzzles\images\2_original.pdf"
       inkscape:export-xdpi="96"
       inkscape:export-ydpi="96" /><path
       id="path5"
       style="fill:#000000;stroke:none;stroke-width:2;stroke-linecap:round;stroke-linejoin:round;paint-order:stroke markers fill"
       d="m 102.51054,94.076416 a 26.322845,26.147053 0 0 0 26.32294,26.147234 v -7.45019 A 18.822531,18.696827 0 0 1 110.01086,94.076416 Z" /><path
       id="path4"
       style="fill:#000000;fill-opacity:1;stroke:none;stroke-width:2;stroke-linecap:round;stroke-linejoin:round;paint-order:stroke markers fill"
       d="M 67.510701,51.576695 A 42.5,42.5 0 0 0 25.010974,94.076416 h 7.4998 A 35,35 0 0 1 67.510701,59.077012 35,35 0 0 1 102.51063,94.076416 h 7.50032 A 42.5,42.5 0 0 0 67.510701,51.576695 Z" /><path
       id="path8"
       style="fill:#000000;fill-opacity:1;stroke:none;stroke-width:1.99999;stroke-linecap:round;stroke-linejoin:round;paint-order:stroke markers fill"
       d="M 67.511125,65.001199 A 28.69825,29.075178 0 0 0 38.812618,94.076416 h 7.499801 A 21.198448,21.476873 0 0 1 67.511125,72.599701 21.198448,21.476873 0 0 1 88.709314,94.076416 h 7.499801 A 28.69825,29.075178 0 0 0 67.511125,65.001199 Z" /><rect
       style="fill:#000000;fill-opacity:1;stroke:none;stroke-width:2;stroke-linecap:round;stroke-linejoin:round;paint-order:stroke markers fill"
       id="rect4"
       width="7.4998002"
       height="71.182335"
       x="25.010973"
       y="94.076439" /><rect
       style="fill:#000000;fill-opacity:1;stroke:none;stroke-width:2;stroke-linecap:round;stroke-linejoin:round;paint-order:stroke markers fill"
       id="rect7"
       width="7.4998002"
       height="37.29435"
       x="88.709412"
       y="94.076439" /><path
       id="path9"
       style="fill:#000000;fill-opacity:1;stroke:none;stroke-width:1.99999;stroke-linecap:round;stroke-linejoin:round;paint-order:stroke markers fill"
       d="m 160.18588,65.001199 a 28.69825,29.075178 0 0 0 -28.69851,29.075217 h 7.4998 a 21.198448,21.476873 0 0 1 21.19871,-21.476715 21.198448,21.476873 0 0 1 21.19819,21.476715 h 7.4998 A 28.69825,29.075178 0 0 0 160.18588,65.001199 Z" /><path
       id="path22"
       style="fill:#ffcc00;fill-opacity:1;stroke:none;stroke-width:2;stroke-linecap:round;stroke-linejoin:round;paint-order:stroke markers fill"
       d="m 160.18536,51.576695 a 42.5,42.5 0 0 0 -42.49973,42.499721 h 7.4998 a 35,35 0 0 1 34.99993,-34.999404 35,35 0 0 1 34.99993,34.999404 h 7.50032 A 42.5,42.5 0 0 0 160.18536,51.576695 Z" /><rect
       style="fill:#000000;fill-opacity:1;stroke:none;stroke-width:2;stroke-linecap:round;stroke-linejoin:round;paint-order:stroke markers fill"
       id="rect9"
       width="7.4998002"
       height="50.875854"
       x="38.812618"
       y="94.076439" /><rect
       style="fill:#000000;fill-opacity:1;stroke:none;stroke-width:2;stroke-linecap:round;stroke-linejoin:round;paint-order:stroke markers fill"
       id="rect10"
       width="7.4998002"
       height="38.967457"
       x="112.72368"
       y="-179.66936"
       transform="rotate(90)" /><path
       id="path13"
       style="fill:#000000;fill-opacity:1;stroke:none;stroke-width:1.99999;stroke-linecap:round;stroke-linejoin:round;paint-order:stroke markers fill"
       d="m 139.03652,144.01658 a 29.075178,28.69825 0 0 1 -29.07522,28.69799 v -7.4998 a 21.476873,21.198448 0 0 0 21.47672,-21.19819 z" /><rect
       style="fill:#000000;fill-opacity:1;stroke:none;stroke-width:2;stroke-linecap:round;stroke-linejoin:round;paint-order:stroke markers fill"
       id="rect14"
       width="7.4998002"
       height="44.202732"
       x="165.21477"
       y="-110.01064"
       transform="rotate(90)" /><g
       id="g21"
       transform="matrix(1.0084539,0,0,1.0094489,-1.1639089,-27.647339)"
       style="stroke-width:0.991128"><rect
         style="fill:#000000;fill-opacity:1;stroke:none;stroke-width:1.98225;stroke-linecap:round;stroke-linejoin:round;paint-order:stroke markers fill"
         id="rect15"
         width="7.4996934"
         height="49.940166"
         x="131.48743"
         y="120.53476" /></g><path
       id="path16"
       style="fill:#000000;fill-opacity:1;stroke:none;stroke-width:1.99999;stroke-linecap:round;stroke-linejoin:round;paint-order:stroke markers fill"
       d="M 188.88382,164.20041 A 29.075178,28.69825 0 0 1 159.8086,192.8984 v -7.4998 a 21.476873,21.198448 0 0 0 21.47672,-21.19819 z" /><path
       id="path17"
       style="fill:#000000;fill-opacity:1;stroke:none;stroke-width:1.99999;stroke-linecap:round;stroke-linejoin:round;paint-order:stroke markers fill"
       d="m 24.961623,164.20041 a 29.075178,28.69825 0 0 0 29.07523,28.69799 v -7.4998 a 21.476873,21.198448 0 0 1 -21.47673,-21.19819 z" /><rect
       style="fill:#000000;fill-opacity:1;stroke:none;stroke-width:2.00001;stroke-linecap:round;stroke-linejoin:round;paint-order:stroke markers fill"
       id="rect17"
       width="7.4998002"
       height="108.01326"
       x="185.39862"
       y="-160.92934"
       transform="rotate(90)" /><g
       id="g20"
       transform="matrix(1.0014518,0,0,0.51061107,-0.19082049,32.479842)"
       style="stroke-width:1.39843"><rect
         style="fill:#000000;fill-opacity:1;stroke:none;stroke-width:2.79685;stroke-linecap:round;stroke-linejoin:round;paint-order:stroke markers fill"
         id="rect18"
         width="7.4996934"
         height="99.880325"
         x="181.38412"
         y="120.53477" /></g><g
       id="g1"
       transform="matrix(1,0,0,0.21311646,-0.04940217,118.28466)"
       style="stroke-width:2.16616"><rect
         style="fill:#000000;fill-opacity:1;stroke:none;stroke-width:4.33233;stroke-linecap:round;stroke-linejoin:round;paint-order:stroke markers fill"
         id="rect1"
         width="7.4996934"
         height="99.880325"
         x="181.38412"
         y="120.53477" /></g><path
       id="path10-4"
       style="fill:#006699;fill-opacity:1;stroke:none;stroke-width:2;stroke-linecap:round;stroke-linejoin:round;paint-order:stroke markers fill"
       d="M 68.709602,34.076469 A 20,30 0 0 0 48.709789,64.076705 20,30 0 0 0 68.709602,94.076416 20,30 0 0 0 84.824899,81.781562 21.198448,21.476873 0 0 0 80.786379,77.404575 15,22.5 0 0 1 68.709602,86.576619 15,22.5 0 0 1 53.709484,64.076705 15,22.5 0 0 1 68.709602,41.576787 a 15,22.5 0 0 1 13.465327,12.64729 42.5,42.5 0 0 1 5.96036,2.736267 20,30 0 0 0 -19.425687,-22.883875 z m 14.948447,29.016834 a 15,22.5 0 0 1 0.0517,0.983402 15,22.5 0 0 1 -0.52917,5.671492 28.69825,29.075178 0 0 1 4.49068,3.66799 20,30 0 0 0 0.9524,-7.176823 35,35 0 0 0 -4.96559,-3.146061 z" /><path
       id="path10"
       style="fill:#3399cc;fill-opacity:1;stroke:none;stroke-width:2;stroke-linecap:round;stroke-linejoin:round;paint-order:stroke markers fill"
       d="m 160.18557,34.076473 a 20,30 0 0 0 -19.99981,30.000236 20,30 0 0 0 19.99981,29.999719 20,30 0 0 0 16.58349,-13.345955 21.198448,21.476873 0 0 0 -4.19975,-4.036963 15,22.5 0 0 1 -12.38374,9.883118 15,22.5 0 0 1 -15.00012,-22.499919 15,22.5 0 0 1 15.00012,-22.499919 15,22.5 0 0 1 13.33924,12.221993 42.5,42.5 0 0 1 5.97069,2.492355 20,30 0 0 0 -19.30993,-22.214665 z m 14.91795,28.43444 a 15,22.5 0 0 1 0.0822,1.565796 15,22.5 0 0 1 -0.41961,4.987292 28.69825,29.075178 0 0 1 4.5961,3.403927 20,30 0 0 0 0.77773,-7.062618 35,35 0 0 0 -5.03639,-2.894397 z" /><path
       style="fill:#ff6600;fill-opacity:1;stroke:none;stroke-width:2;stroke-linecap:round;stroke-linejoin:round;paint-order:stroke markers fill"
       d="m 18.590543,158.2111 10.17033,-13.774 10.170331,13.774 z"
       id="path21"
       sodipodi:nodetypes="cccc" /></g></svg>
